<svg width="83" height="69" viewBox="0 0 83 69" fill="none" xmlns="http://www.w3.org/2000/svg">
<g clip-path="url(#clip0_128_140)">
<path d="M33 41.5894H37.7826V48.3285C37.7826 49.6491 36.712 50.7198 35.3913 50.7198C34.0706 50.7198 33 49.6491 33 48.3285V41.5894Z" fill="#027223"/>
<path d="M48.2174 41.5894H53V48.3285C53 49.6491 51.9294 50.7198 50.6087 50.7198C49.288 50.7198 48.2174 49.6491 48.2174 48.3285V41.5894Z" fill="#027223"/>
<path d="M33 38.9807V42.0242H53V38.9807H33Z" fill="#027223"/>
<path d="M42.9917 29L39.6099 32.3818L49.6133 42.3852L52.9951 39.0034L42.9917 29Z" fill="#027223"/>
<path d="M46.3482 32.3891L42.9664 29.0073L33 38.9737L36.3818 42.3556L46.3482 32.3891Z" fill="#027223"/>
<path d="M37.3 45.5C37.3 43.2909 39.0908 41.5 41.3 41.5" stroke="#027223"/>
<path d="M45.0002 41.2999C47.2094 41.3001 49.0001 43.091 49 45.3002" stroke="#027223"/>
<rect x="37" y="41" width="1.6" height="2" fill="#027223"/>
<rect x="49.5002" y="41.0001" width="1.6" height="2" transform="rotate(90.0036 49.5002 41.0001)" fill="#027223"/>
</g>
<path d="M14.398 18.892C17.7713 18.892 20.7307 19.5513 23.276 20.87C25.852 22.1887 27.83 24.0747 29.21 26.528C30.6207 28.9507 31.326 31.772 31.326 34.992C31.326 38.212 30.6207 41.0333 29.21 43.456C27.83 45.848 25.852 47.7033 23.276 49.022C20.7307 50.3407 17.7713 51 14.398 51H3.174V18.892H14.398ZM14.168 45.526C17.5413 45.526 20.148 44.606 21.988 42.766C23.828 40.926 24.748 38.3347 24.748 34.992C24.748 31.6493 23.828 29.0427 21.988 27.172C20.148 25.2707 17.5413 24.32 14.168 24.32H9.614V45.526H14.168Z" fill="#027223"/>
<path d="M62.524 34.152C63.172 33.096 64.012 32.268 65.044 31.668C66.1 31.068 67.3 30.768 68.644 30.768V36.06H67.312C65.728 36.06 64.528 36.432 63.712 37.176C62.92 37.92 62.524 39.216 62.524 41.064V51H57.484V31.056H62.524V34.152ZM77.4747 28.68C76.5867 28.68 75.8427 28.404 75.2427 27.852C74.6667 27.276 74.3787 26.568 74.3787 25.728C74.3787 24.888 74.6667 24.192 75.2427 23.64C75.8427 23.064 76.5867 22.776 77.4747 22.776C78.3627 22.776 79.0947 23.064 79.6707 23.64C80.2707 24.192 80.5707 24.888 80.5707 25.728C80.5707 26.568 80.2707 27.276 79.6707 27.852C79.0947 28.404 78.3627 28.68 77.4747 28.68ZM79.9587 31.056V51H74.9187V31.056H79.9587Z" fill="#027223"/>
<defs>
<clipPath id="clip0_128_140">
<rect width="20" height="21.7391" fill="white" transform="translate(33 29)"/>
</clipPath>
</defs>
</svg>
